# xmcd CD database file
#
# Track frame offsets:
#	150
#	20007
#	36759
#	53742
#	68578
#	86826
#	99677
#	116993
#	135682
#	151078
#	168727
#	184889
#	200028
#	221274
#	237577
#	262189
#	282371
#	296462
#	310347
#	327761
#	343425
#
# Disc length: 4838 seconds
#
# Revision: 0
# Processed by: cddbd v1.5.1PL0 Copyright (c) Steve Scherf et al.
# Submitted via: CDex 1.51
#
DISCID=4e12e415
DTITLE=Zamfir  - Gold Greatest Hits 
DYEAR=2003
DGENRE=New Age
TTITLE0=Lonely Shepherd
TTITLE1=Duet from The Pearl Fishers
TTITLE2=Black Rose
TTITLE3=Summer of Love (Été d'Amour)
TTITLE4=She
TTITLE5=Andrew's Theme
TTITLE6=Chariots of Fire
TTITLE7=Your Song
TTITLE8=Theme from Limelight
TTITLE9=Memory
TTITLE10=Blue Navajo
TTITLE11=Solitude
TTITLE12=Ave Maria
TTITLE13=Theme from Summer of '42
TTITLE14=Don't Cry for Me Argentina
TTITLE15=Serenade (From String Quartet in F)
TTITLE16=Ladies Waltz
TTITLE17=Stranger on the Shore
TTITLE18=Somewhere My Love
TTITLE19=Danny Boy
TTITLE20=Rose
EXTD=YEAR: 2003
EXTT0=
EXTT1=
EXTT2=
EXTT3=
EXTT4=
EXTT5=
EXTT6=
EXTT7=
EXTT8=
EXTT9=
EXTT10=
EXTT11=
EXTT12=
EXTT13=
EXTT14=
EXTT15=
EXTT16=
EXTT17=
EXTT18=
EXTT19=
EXTT20=
PLAYORDER=
